<svg width="193" height="150" viewBox="0 0 193 150" fill="none" xmlns="http://www.w3.org/2000/svg">
<path d="M107.238 41.116C107.238 41.116 105.405 39.7872 103.228 41.116C101.052 42.4448 81.5751 65.276 68.1134 64.7928C54.709 64.3096 25.4369 63.1016 11.3451 79.2888C-2.74673 95.476 -2.40302 114.985 6.76239 123.804C15.9278 132.622 23.7184 141.078 23.7184 141.078C23.7184 141.078 26.468 143.977 28.9885 141.803C28.9885 141.803 36.55 116.254 42.8512 116.133C49.1524 116.012 45.4863 126.642 47.5485 127.488C49.6107 128.334 59.5781 126.038 60.9529 128.938C62.3277 131.837 40.6744 144.038 42.2784 147.058C43.8823 150.078 87.819 149.353 87.819 149.353C87.819 149.353 92.9746 147.782 92.9746 143.917C92.9746 140.051 94.7504 94.1472 88.9647 88.0468C88.9647 88.0468 87.0171 83.094 91.1415 82.3692C95.2659 81.6444 124.08 69.4436 123.851 62.1956C123.851 62.1956 124.194 60.8668 122.819 58.7528C121.445 56.7596 107.238 41.116 107.238 41.116Z" fill="white"/>
<path d="M115.029 31.9355H156.961C156.961 31.9355 150.258 49.2704 135.995 49.2704C121.731 49.2704 115.029 31.9355 115.029 31.9355Z" fill="white"/>
<path d="M139.604 26.8015C168.868 26.8015 192.591 23.9891 192.591 20.5199C192.591 17.0507 168.868 14.2383 139.604 14.2383C110.34 14.2383 86.6163 17.0507 86.6163 20.5199C86.6163 23.9891 110.34 26.8015 139.604 26.8015Z" fill="white"/>
<path d="M22.8594 42.9884C21.0263 39.0624 19.9952 34.6532 19.9952 30.0024C19.9952 13.6944 32.5403 0.466797 48.007 0.466797C56.9433 0.466797 64.9057 4.876 70.0613 11.7616L78.3102 6.8088C78.3102 6.8088 80.3151 5.96319 81.3462 6.99C82.3773 8.0168 80.4297 9.6476 80.4297 9.6476L22.8594 42.9884Z" fill="white"/>
<path d="M25.3796 47.5179C30.4779 54.5847 38.5549 59.1147 47.6057 59.1147C63.0724 59.1147 75.6176 45.8871 75.6176 29.5791C75.6176 26.1363 75.0447 22.8143 74.0136 19.7339L25.3796 47.5179Z" fill="white"/>
</svg>
